<?xml version="1.0" encoding="UTF-8"?>
<!DOCTYPE svg PUBLIC "-//W3C//DTD SVG 1.1//EN" "http://www.w3.org/Graphics/SVG/1.1/DTD/svg11.dtd">
<svg xmlns="http://www.w3.org/2000/svg" version="1.1" width="376px" height="114px" style="shape-rendering:geometricPrecision; text-rendering:geometricPrecision; image-rendering:optimizeQuality; fill-rule:evenodd; clip-rule:evenodd" xmlns:xlink="http://www.w3.org/1999/xlink">
<g><path style="opacity:1" fill="#fdfdfd" d="M -0.5,-0.5 C 124.833,-0.5 250.167,-0.5 375.5,-0.5C 375.5,37.5 375.5,75.5 375.5,113.5C 250.167,113.5 124.833,113.5 -0.5,113.5C -0.5,75.5 -0.5,37.5 -0.5,-0.5 Z"/></g>
<g><path style="opacity:1" fill="#737373" d="M 78.5,23.5 C 77.7375,24.2679 76.7375,24.7679 75.5,25C 80.5,25.6667 85.5,25.6667 90.5,25C 88.9419,24.79 87.6085,24.29 86.5,23.5C 89.8738,23.6744 93.2072,24.1744 96.5,25C 97.056,25.3826 97.3893,25.8826 97.5,26.5C 95.5454,25.6765 93.5454,25.5099 91.5,26C 93.3197,26.2004 94.653,27.0337 95.5,28.5C 89.3192,26.7477 82.9859,26.0811 76.5,26.5C 75.8333,26.5 75.1667,26.5 74.5,26.5C 73.791,25.596 72.791,25.2627 71.5,25.5C 73.5145,24.0762 75.8478,23.4095 78.5,23.5 Z"/></g>
<g><path style="opacity:1" fill="#2e2e2e" d="M 78.5,23.5 C 81.1667,23.5 83.8333,23.5 86.5,23.5C 87.6085,24.29 88.9419,24.79 90.5,25C 85.5,25.6667 80.5,25.6667 75.5,25C 76.7375,24.7679 77.7375,24.2679 78.5,23.5 Z"/></g>
<g><path style="opacity:1" fill="#787878" d="M 69.5,25.5 C 69.0269,26.9063 68.0269,27.573 66.5,27.5C 66.9731,26.0937 67.9731,25.427 69.5,25.5 Z"/></g>
<g><path style="opacity:1" fill="#fbfbfb" d="M 76.5,26.5 C 82.9859,26.0811 89.3192,26.7477 95.5,28.5C 100.188,30.1745 104.188,32.8412 107.5,36.5C 107.427,38.0269 108.094,39.0269 109.5,39.5C 111.454,42.0259 113.121,44.6925 114.5,47.5C 114.5,47.8333 114.5,48.1667 114.5,48.5C 115.307,54.4638 115.64,60.4638 115.5,66.5C 113.991,69.6777 112.658,73.0111 111.5,76.5C 110.662,76.8417 110.328,77.5084 110.5,78.5C 108.413,79.5846 107.08,81.2512 106.5,83.5C 101.786,87.3505 96.4529,90.0172 90.5,91.5C 81.7298,92.3673 73.3965,91.0339 65.5,87.5C 64.4154,85.4131 62.7488,84.0798 60.5,83.5C 57.0918,80.4173 54.4251,76.7507 52.5,72.5C 52.7709,70.6203 52.1042,69.287 50.5,68.5C 50.5,67.8333 50.5,67.1667 50.5,66.5C 50.3599,60.4638 50.6932,54.4638 51.5,48.5C 51.5,48.1667 51.5,47.8333 51.5,47.5C 52.9313,46.2196 53.5979,44.5529 53.5,42.5C 56.5744,37.0905 60.9078,33.0905 66.5,30.5C 70.07,29.7135 73.4034,28.3801 76.5,26.5 Z"/></g>
<g><path style="opacity:1" fill="#b0b0b0" d="M 102.5,28.5 C 104.749,29.0798 106.415,30.4131 107.5,32.5C 105.251,31.9202 103.585,30.5869 102.5,28.5 Z"/></g>
<g><path style="opacity:1" fill="#c0c0c0" d="M 74.5,26.5 C 75.1667,26.5 75.8333,26.5 76.5,26.5C 73.4034,28.3801 70.07,29.7135 66.5,30.5C 68.6123,28.2295 71.279,26.8961 74.5,26.5 Z"/></g>
<g><path style="opacity:1" fill="#343434" d="M 69.5,25.5 C 70.1667,25.5 70.8333,25.5 71.5,25.5C 72.791,25.2627 73.791,25.596 74.5,26.5C 71.279,26.8961 68.6123,28.2295 66.5,30.5C 60.9078,33.0905 56.5744,37.0905 53.5,42.5C 52.6618,42.1583 52.3284,41.4916 52.5,40.5C 55.885,34.7815 60.5517,30.4481 66.5,27.5C 68.0269,27.573 69.0269,26.9063 69.5,25.5 Z"/></g>
<g><path style="opacity:1" fill="#3c3c3c" d="M 97.5,26.5 C 99.0495,27.4408 100.716,28.1075 102.5,28.5C 103.585,30.5869 105.251,31.9202 107.5,32.5C 110.433,36.0569 113.099,39.7236 115.5,43.5C 114.35,42.1498 113.683,42.3164 113.5,44C 113.989,45.1385 114.322,46.3052 114.5,47.5C 113.121,44.6925 111.454,42.0259 109.5,39.5C 109.573,37.9731 108.906,36.9731 107.5,36.5C 104.188,32.8412 100.188,30.1745 95.5,28.5C 94.653,27.0337 93.3197,26.2004 91.5,26C 93.5454,25.5099 95.5454,25.6765 97.5,26.5 Z"/></g>
<g><path style="opacity:1" fill="#9c9c9c" d="M 107.5,36.5 C 108.906,36.9731 109.573,37.9731 109.5,39.5C 108.094,39.0269 107.427,38.0269 107.5,36.5 Z"/></g>
<g><path style="opacity:1" fill="#777777" d="M 172.5,38.5 C 172.828,50.6783 172.495,62.6783 171.5,74.5C 171.5,62.8333 171.5,51.1667 171.5,39.5C 169.302,39.1201 167.635,39.7868 166.5,41.5C 165.857,43.0764 164.857,44.4097 163.5,45.5C 163.866,39.8026 166.866,37.4692 172.5,38.5 Z"/></g>
<g><path style="opacity:1" fill="#d3d3d3" d="M 172.5,38.5 C 173.495,50.6554 173.829,62.9887 173.5,75.5C 171.265,75.7947 169.265,75.4614 167.5,74.5C 167.833,74.5 168.167,74.5 168.5,74.5C 169.5,74.5 170.5,74.5 171.5,74.5C 172.495,62.6783 172.828,50.6783 172.5,38.5 Z"/></g>
<g><path style="opacity:1" fill="#131313" d="M 143.5,39.5 C 143.5,40.1667 143.5,40.8333 143.5,41.5C 143.179,43.0481 142.179,43.7148 140.5,43.5C 140.263,44.791 140.596,45.791 141.5,46.5C 142.387,55.8006 142.721,65.1339 142.5,74.5C 141.167,74.5 139.833,74.5 138.5,74.5C 138.5,62.8333 138.5,51.1667 138.5,39.5C 140.167,39.5 141.833,39.5 143.5,39.5 Z"/></g>
<g><path style="opacity:1" fill="#0a0a0a" d="M 171.5,74.5 C 170.5,74.5 169.5,74.5 168.5,74.5C 169.068,63.3149 168.402,52.3149 166.5,41.5C 167.635,39.7868 169.302,39.1201 171.5,39.5C 171.5,51.1667 171.5,62.8333 171.5,74.5 Z"/></g>
<g><path style="opacity:1" fill="#575757" d="M 52.5,40.5 C 52.3284,41.4916 52.6618,42.1583 53.5,42.5C 53.5979,44.5529 52.9313,46.2196 51.5,47.5C 51.8693,45.0065 51.2027,44.3398 49.5,45.5C 50.1103,43.5659 51.1103,41.8993 52.5,40.5 Z"/></g>
<g><path style="opacity:1" fill="#737373" d="M 316.5,42.5 C 317.209,41.596 318.209,41.2627 319.5,41.5C 319.5,43.8333 319.5,46.1667 319.5,48.5C 319.06,46.1561 318.06,44.1561 316.5,42.5 Z"/></g>
<g><path style="opacity:1" fill="#0c0c0c" d="M 272.5,42.5 C 274.344,44.2789 275.01,46.6122 274.5,49.5C 277.167,49.5 279.833,49.5 282.5,49.5C 282.5,50.5 282.5,51.5 282.5,52.5C 279.833,52.5 277.167,52.5 274.5,52.5C 274.178,58.358 274.511,64.0247 275.5,69.5C 275.5,70.1667 275.833,70.5 276.5,70.5C 277.398,71.1577 278.398,71.8243 279.5,72.5C 277.189,73.5751 274.856,73.5751 272.5,72.5C 271.948,65.6858 271.281,59.0191 270.5,52.5C 269.5,52.5 268.5,52.5 267.5,52.5C 267.5,51.5 267.5,50.5 267.5,49.5C 268.209,48.596 269.209,48.2627 270.5,48.5C 271.285,46.6264 271.952,44.6264 272.5,42.5 Z"/></g>
<g><path style="opacity:1" fill="#121212" d="M 316.5,42.5 C 318.06,44.1561 319.06,46.1561 319.5,48.5C 321.607,49.4682 323.941,49.8016 326.5,49.5C 326.5,50.5 326.5,51.5 326.5,52.5C 323.833,52.5 321.167,52.5 318.5,52.5C 318.178,58.358 318.511,64.0247 319.5,69.5C 320.552,71.256 322.219,71.9227 324.5,71.5C 325.404,72.209 325.737,73.209 325.5,74.5C 322.813,74.6641 320.146,74.4974 317.5,74C 316.944,73.6174 316.611,73.1174 316.5,72.5C 315.948,65.6858 315.281,59.0191 314.5,52.5C 313.5,52.5 312.5,52.5 311.5,52.5C 311.5,51.5 311.5,50.5 311.5,49.5C 312.209,48.596 313.209,48.2627 314.5,48.5C 314.054,45.9899 314.72,43.9899 316.5,42.5 Z"/></g>
<g><path style="opacity:1" fill="#9e9e9e" d="M 143.5,39.5 C 141.833,39.5 140.167,39.5 138.5,39.5C 138.5,51.1667 138.5,62.8333 138.5,74.5C 137.751,62.6492 137.084,50.6492 136.5,38.5C 139.059,38.1984 141.393,38.5318 143.5,39.5 Z"/></g>
<g><path style="opacity:1" fill="#898989" d="M 143.5,39.5 C 145.245,41.0326 146.245,43.0326 146.5,45.5C 145.143,44.4097 144.143,43.0764 143.5,41.5C 143.5,40.8333 143.5,40.1667 143.5,39.5 Z"/></g>
<g><path style="opacity:1" fill="#575757" d="M 272.5,42.5 C 271.952,44.6264 271.285,46.6264 270.5,48.5C 270.025,45.9179 270.692,43.9179 272.5,42.5 Z"/></g>
<g><path style="opacity:1" fill="#989898" d="M 115.5,43.5 C 117.213,44.6354 117.88,46.302 117.5,48.5C 116.463,47.0697 115.796,45.403 115.5,43.5 Z"/></g>
<g><path style="opacity:1" fill="#161616" d="M 220.5,50.5 C 220.5,58.5 220.5,66.5 220.5,74.5C 219.5,74.5 218.5,74.5 217.5,74.5C 217.666,67.4921 217.5,60.4921 217,53.5C 214.984,51.3918 212.817,51.0584 210.5,52.5C 208.973,52.427 207.973,53.0937 207.5,54.5C 206.509,60.979 206.176,67.6457 206.5,74.5C 205.5,74.5 204.5,74.5 203.5,74.5C 203.5,65.8333 203.5,57.1667 203.5,48.5C 204.5,48.5 205.5,48.5 206.5,48.5C 206.281,49.675 206.614,50.675 207.5,51.5C 208.107,51.3764 208.44,51.0431 208.5,50.5C 209.898,48.4672 211.898,47.4672 214.5,47.5C 217.102,47.4672 219.102,48.4672 220.5,50.5 Z"/></g>
<g><path style="opacity:1" fill="#545454" d="M 231.5,48.5 C 228.833,48.8333 226.167,49.1667 223.5,49.5C 225.993,47.4162 228.66,47.0829 231.5,48.5 Z"/></g>
<g><path style="opacity:1" fill="#202020" d="M 231.5,48.5 C 232.815,49.4756 234.148,50.4756 235.5,51.5C 236.82,59.3235 236.82,66.9902 235.5,74.5C 234.5,74.5 233.5,74.5 232.5,74.5C 232.825,67.3134 232.491,60.3134 231.5,53.5C 229.393,52.5318 227.059,52.1984 224.5,52.5C 223.662,52.1583 223.328,51.4916 223.5,50.5C 223.5,50.1667 223.5,49.8333 223.5,49.5C 226.167,49.1667 228.833,48.8333 231.5,48.5 Z"/></g>
<g><path style="opacity:1" fill="#151515" d="M 256.5,48.5 C 258.411,49.075 260.078,50.075 261.5,51.5C 262.434,59.111 262.767,66.7777 262.5,74.5C 261.167,74.5 259.833,74.5 258.5,74.5C 257.335,71.9781 256.002,71.9781 254.5,74.5C 252.5,74.5 250.5,74.5 248.5,74.5C 247.508,74.6716 246.842,74.3382 246.5,73.5C 242.878,69.4643 242.545,65.131 245.5,60.5C 247.027,60.573 248.027,59.9063 248.5,58.5C 251.833,58.5 255.167,58.5 258.5,58.5C 258.784,56.5853 258.451,54.9187 257.5,53.5C 256.833,53.1667 256.167,52.8333 255.5,52.5C 252.642,51.834 249.642,51.1674 246.5,50.5C 249.602,48.8173 252.936,48.1506 256.5,48.5 Z"/></g>
<g><path style="opacity:1" fill="#747474" d="M 272.5,42.5 C 273.209,41.596 274.209,41.2627 275.5,41.5C 275.5,43.8333 275.5,46.1667 275.5,48.5C 278.167,48.5 280.833,48.5 283.5,48.5C 283.768,50.099 283.434,51.4324 282.5,52.5C 282.5,51.5 282.5,50.5 282.5,49.5C 279.833,49.5 277.167,49.5 274.5,49.5C 275.01,46.6122 274.344,44.2789 272.5,42.5 Z"/></g>
<g><path style="opacity:1" fill="#161616" d="M 300.5,48.5 C 301.167,48.5 301.833,48.5 302.5,48.5C 303.167,49.8333 304.167,50.8333 305.5,51.5C 306.167,51.5 306.5,51.8333 306.5,52.5C 306.5,59.8333 306.5,67.1667 306.5,74.5C 305.167,74.5 303.833,74.5 302.5,74.5C 301.335,71.9781 300.002,71.9781 298.5,74.5C 296.5,74.5 294.5,74.5 292.5,74.5C 289.833,73.8333 288.167,72.1667 287.5,69.5C 287.21,66.2153 287.877,63.2153 289.5,60.5C 291.027,60.573 292.027,59.9063 292.5,58.5C 295.833,58.5 299.167,58.5 302.5,58.5C 302.784,56.5853 302.451,54.9187 301.5,53.5C 300.833,53.1667 300.167,52.8333 299.5,52.5C 296.642,51.834 293.642,51.1674 290.5,50.5C 293.602,48.8173 296.936,48.1506 300.5,48.5 Z"/></g>
<g><path style="opacity:1" fill="#a6a6a6" d="M 302.5,48.5 C 304.5,48.5 305.5,49.5 305.5,51.5C 304.167,50.8333 303.167,49.8333 302.5,48.5 Z"/></g>
<g><path style="opacity:1" fill="#b0b0b0" d="M 334.5,48.5 C 335.919,47.5489 337.585,47.2155 339.5,47.5C 339.5,54.5 339.5,61.5 339.5,68.5C 338.509,62.021 338.176,55.3543 338.5,48.5C 337.167,48.5 335.833,48.5 334.5,48.5 Z"/></g>
<g><path style="opacity:1" fill="#6c6c6c" d="M 348.5,74.5 C 348.833,74.5 349.167,74.5 349.5,74.5C 350.5,74.5 351.5,74.5 352.5,74.5C 352.5,65.8333 352.5,57.1667 352.5,48.5C 351.5,48.5 350.5,48.5 349.5,48.5C 350.128,55.9131 349.461,62.9131 347.5,69.5C 348.464,62.2537 348.797,54.9204 348.5,47.5C 350.167,47.5 351.833,47.5 353.5,47.5C 353.5,56.8333 353.5,66.1667 353.5,75.5C 351.585,75.7845 349.919,75.4511 348.5,74.5 Z"/></g>
<g><path style="opacity:1" fill="#696969" d="M 208.5,50.5 C 208.44,51.0431 208.107,51.3764 207.5,51.5C 206.614,50.675 206.281,49.675 206.5,48.5C 205.5,48.5 204.5,48.5 203.5,48.5C 203.5,57.1667 203.5,65.8333 203.5,74.5C 204.5,74.5 205.5,74.5 206.5,74.5C 206.176,67.6457 206.509,60.979 207.5,54.5C 207.5,61.1667 207.5,67.8333 207.5,74.5C 206.081,75.4511 204.415,75.7845 202.5,75.5C 202.5,66.1667 202.5,56.8333 202.5,47.5C 204.167,47.5 205.833,47.5 207.5,47.5C 207.263,48.791 207.596,49.791 208.5,50.5 Z"/></g>
<g><path style="opacity:1" fill="#7c7c7c" d="M 319.5,48.5 C 322.167,48.5 324.833,48.5 327.5,48.5C 327.768,50.099 327.434,51.4324 326.5,52.5C 326.5,51.5 326.5,50.5 326.5,49.5C 323.941,49.8016 321.607,49.4682 319.5,48.5 Z"/></g>
<g><path style="opacity:1" fill="#181818" d="M 334.5,48.5 C 335.833,48.5 337.167,48.5 338.5,48.5C 338.176,55.3543 338.509,62.021 339.5,68.5C 339.833,69.1667 340.167,69.8333 340.5,70.5C 342.5,71.1667 344.5,71.8333 346.5,72.5C 343.041,75.1088 339.541,75.1088 336,72.5C 334.565,64.6112 334.065,56.6112 334.5,48.5 Z"/></g>
<g><path style="opacity:1" fill="#0a0a0a" d="M 349.5,74.5 C 349.635,72.4458 348.968,70.7791 347.5,69.5C 349.461,62.9131 350.128,55.9131 349.5,48.5C 350.5,48.5 351.5,48.5 352.5,48.5C 352.5,57.1667 352.5,65.8333 352.5,74.5C 351.5,74.5 350.5,74.5 349.5,74.5 Z"/></g>
<g><path style="opacity:1" fill="#898989" d="M 71.5,50.5 C 72.4486,49.8476 73.6153,49.5143 75,49.5C 76.6811,49.6083 77.8478,50.2749 78.5,51.5C 76.283,50.6314 73.9496,50.298 71.5,50.5 Z"/></g>
<g><path style="opacity:1" fill="#636363" d="M 256.5,48.5 C 252.936,48.1506 249.602,48.8173 246.5,50.5C 249.642,51.1674 252.642,51.834 255.5,52.5C 252.167,52.5 248.833,52.5 245.5,52.5C 245.5,51.1667 245.5,49.8333 245.5,48.5C 249.316,47.3797 252.983,47.3797 256.5,48.5 Z"/></g>
<g><path style="opacity:1" fill="#676767" d="M 300.5,48.5 C 296.936,48.1506 293.602,48.8173 290.5,50.5C 293.642,51.1674 296.642,51.834 299.5,52.5C 296.167,52.5 292.833,52.5 289.5,52.5C 289.5,51.1667 289.5,49.8333 289.5,48.5C 293.316,47.3797 296.983,47.3797 300.5,48.5 Z"/></g>
<g><path style="opacity:1" fill="#969696" d="M 167.5,74.5 C 166.671,67.3448 166.171,60.0115 166,52.5C 163.992,57.191 161.492,61.5243 158.5,65.5C 160.883,59.0642 163.55,52.7309 166.5,46.5C 167.498,55.8096 167.832,65.1429 167.5,74.5 Z"/></g>
<g><path style="opacity:1" fill="#141414" d="M 71.5,50.5 C 73.9496,50.298 76.283,50.6314 78.5,51.5C 79.968,52.7791 80.6347,54.4458 80.5,56.5C 77.4824,56.2962 74.4824,55.9629 71.5,55.5C 71.5,54.1667 71.5,52.8333 71.5,51.5C 71.5,51.1667 71.5,50.8333 71.5,50.5 Z"/></g>
<g><path style="opacity:1" fill="#1f1f1f" d="M 143.5,41.5 C 144.143,43.0764 145.143,44.4097 146.5,45.5C 147.576,48.6484 148.909,51.6484 150.5,54.5C 150.427,56.0269 151.094,57.0269 152.5,57.5C 152.328,58.4916 152.662,59.1583 153.5,59.5C 153.231,61.4286 153.731,63.0953 155,64.5C 156.267,62.1856 157.434,59.8522 158.5,57.5C 160.167,53.5 161.833,49.5 163.5,45.5C 164.857,44.4097 165.857,43.0764 166.5,41.5C 168.402,52.3149 169.068,63.3149 168.5,74.5C 168.167,74.5 167.833,74.5 167.5,74.5C 167.832,65.1429 167.498,55.8096 166.5,46.5C 163.55,52.7309 160.883,59.0642 158.5,65.5C 157.399,66.8484 156.399,68.3484 155.5,70C 154.212,70.2387 153.212,69.7387 152.5,68.5C 151.284,63.738 149.284,59.4047 146.5,55.5C 145.681,51.5417 144.181,47.8751 142,44.5C 141.536,45.0944 141.369,45.7611 141.5,46.5C 140.596,45.791 140.263,44.791 140.5,43.5C 142.179,43.7148 143.179,43.0481 143.5,41.5 Z"/></g>
<g><path style="opacity:1" fill="#7e7e7e" d="M 146.5,55.5 C 146.167,55.5 145.833,55.5 145.5,55.5C 145.217,54.7109 144.717,54.0442 144,53.5C 143.829,60.6787 143.329,67.6787 142.5,74.5C 142.721,65.1339 142.387,55.8006 141.5,46.5C 141.369,45.7611 141.536,45.0944 142,44.5C 144.181,47.8751 145.681,51.5417 146.5,55.5 Z"/></g>
<g><path style="opacity:1" fill="#b2b2b2" d="M 267.5,49.5 C 267.5,50.5 267.5,51.5 267.5,52.5C 268.5,52.5 269.5,52.5 270.5,52.5C 270.5,57.8333 270.5,63.1667 270.5,68.5C 269.513,63.6946 269.179,58.6946 269.5,53.5C 268.5,53.5 267.5,53.5 266.5,53.5C 266.232,51.901 266.566,50.5676 267.5,49.5 Z"/></g>
<g><path style="opacity:1" fill="#4d4d4d" d="M 270.5,52.5 C 271.281,59.0191 271.948,65.6858 272.5,72.5C 271.326,71.4863 270.66,70.153 270.5,68.5C 270.5,63.1667 270.5,57.8333 270.5,52.5 Z"/></g>
<g><path style="opacity:1" fill="#7c7c7c" d="M 282.5,52.5 C 280.393,53.4682 278.059,53.8016 275.5,53.5C 275.5,58.8333 275.5,64.1667 275.5,69.5C 274.511,64.0247 274.178,58.358 274.5,52.5C 277.167,52.5 279.833,52.5 282.5,52.5 Z"/></g>
<g><path style="opacity:1" fill="#bdbdbd" d="M 311.5,49.5 C 311.5,50.5 311.5,51.5 311.5,52.5C 312.5,52.5 313.5,52.5 314.5,52.5C 314.5,57.8333 314.5,63.1667 314.5,68.5C 313.513,63.6946 313.179,58.6946 313.5,53.5C 312.5,53.5 311.5,53.5 310.5,53.5C 310.232,51.901 310.566,50.5676 311.5,49.5 Z"/></g>
<g><path style="opacity:1" fill="#575757" d="M 314.5,52.5 C 315.281,59.0191 315.948,65.6858 316.5,72.5C 315.326,71.4863 314.66,70.153 314.5,68.5C 314.5,63.1667 314.5,57.8333 314.5,52.5 Z"/></g>
<g><path style="opacity:1" fill="#727272" d="M 326.5,52.5 C 324.393,53.4682 322.059,53.8016 319.5,53.5C 319.5,58.8333 319.5,64.1667 319.5,69.5C 318.511,64.0247 318.178,58.358 318.5,52.5C 321.167,52.5 323.833,52.5 326.5,52.5 Z"/></g>
<g><path style="opacity:1" fill="#d4d4d4" d="M 145.5,55.5 C 144.509,61.979 144.176,68.6457 144.5,75.5C 142.265,75.7947 140.265,75.4614 138.5,74.5C 139.833,74.5 141.167,74.5 142.5,74.5C 143.329,67.6787 143.829,60.6787 144,53.5C 144.717,54.0442 145.217,54.7109 145.5,55.5 Z"/></g>
<g><path style="opacity:1" fill="#3c3c3c" d="M 83.5,53.5 C 84.8333,54.5 84.8333,55.5 83.5,56.5C 80.8333,55.5 80.8333,54.5 83.5,53.5 Z"/></g>
<g><path style="opacity:1" fill="#cacaca" d="M 210.5,52.5 C 210.217,53.2891 209.717,53.9558 209,54.5C 208.828,61.346 208.328,68.0126 207.5,74.5C 207.5,67.8333 207.5,61.1667 207.5,54.5C 207.973,53.0937 208.973,52.427 210.5,52.5 Z"/></g>
<g><path style="opacity:1" fill="#2b2b2b" d="M 220.5,50.5 C 221.5,50.5 222.5,50.5 223.5,50.5C 223.328,51.4916 223.662,52.1583 224.5,52.5C 224.5,52.8333 224.5,53.1667 224.5,53.5C 223.504,53.4142 222.671,53.7476 222,54.5C 221.828,61.346 221.328,68.0126 220.5,74.5C 220.5,66.5 220.5,58.5 220.5,50.5 Z"/></g>
<g><path style="opacity:1" fill="#c2c2c2" d="M 224.5,53.5 C 223.536,60.7463 223.203,68.0796 223.5,75.5C 221.265,75.7947 219.265,75.4614 217.5,74.5C 218.5,74.5 219.5,74.5 220.5,74.5C 221.328,68.0126 221.828,61.346 222,54.5C 222.671,53.7476 223.504,53.4142 224.5,53.5 Z"/></g>
<g><path style="opacity:1" fill="#757575" d="M 71.5,51.5 C 71.5,52.8333 71.5,54.1667 71.5,55.5C 74.4824,55.9629 77.4824,56.2962 80.5,56.5C 80.6347,54.4458 79.968,52.7791 78.5,51.5C 80.698,51.1201 82.3646,51.7868 83.5,53.5C 80.8333,54.5 80.8333,55.5 83.5,56.5C 79.3131,57.6624 74.9798,57.6624 70.5,56.5C 70.2155,54.5853 70.5489,52.9187 71.5,51.5 Z"/></g>
<g><path style="opacity:1" fill="#292929" d="M 95.5,49.5 C 96.1667,49.5 96.5,49.8333 96.5,50.5C 96.665,53.8499 96.4983,57.1832 96,60.5C 95.7216,59.5842 95.2216,58.9175 94.5,58.5C 93.2652,58.7214 92.2652,59.3881 91.5,60.5C 90.12,58.0233 89.12,58.0233 88.5,60.5C 87.1667,58.8333 87.1667,57.1667 88.5,55.5C 90.8333,56.8333 93.1667,56.8333 95.5,55.5C 95.5,54.8333 95.5,54.1667 95.5,53.5C 95.5,52.8333 95.1667,52.5 94.5,52.5C 94.2627,51.209 94.596,50.209 95.5,49.5 Z"/></g>
<g><path style="opacity:1" fill="#9c9c9c" d="M 150.5,54.5 C 151.906,54.9731 152.573,55.9731 152.5,57.5C 151.094,57.0269 150.427,56.0269 150.5,54.5 Z"/></g>
<g><path style="opacity:1" fill="#5a5a5a" d="M 231.5,53.5 C 232.491,60.3134 232.825,67.3134 232.5,74.5C 233.5,74.5 234.5,74.5 235.5,74.5C 234.432,75.4345 233.099,75.7678 231.5,75.5C 231.5,68.1667 231.5,60.8333 231.5,53.5 Z"/></g>
<g><path style="opacity:1" fill="#8d8d8d" d="M 114.5,48.5 C 115.222,48.9175 115.722,49.5842 116,50.5C 116.817,56.0164 116.651,61.3497 115.5,66.5C 115.64,60.4638 115.307,54.4638 114.5,48.5 Z"/></g>
<g><path style="opacity:1" fill="#a0a0a0" d="M 117.5,48.5 C 119.03,51.6952 119.696,55.1952 119.5,59C 119.497,61.6903 119.164,64.1903 118.5,66.5C 118.64,60.4638 118.307,54.4638 117.5,48.5 Z"/></g>
<g><path style="opacity:1" fill="#7f7f7f" d="M 257.5,53.5 C 258.451,54.9187 258.784,56.5853 258.5,58.5C 255.167,58.5 251.833,58.5 248.5,58.5C 251.287,57.5233 254.287,57.19 257.5,57.5C 257.5,56.1667 257.5,54.8333 257.5,53.5 Z"/></g>
<g><path style="opacity:1" fill="#a8a8a8" d="M 261.5,51.5 C 262.117,51.6107 262.617,51.944 263,52.5C 263.822,60.0118 263.655,67.3451 262.5,74.5C 262.767,66.7777 262.434,59.111 261.5,51.5 Z"/></g>
<g><path style="opacity:1" fill="#808080" d="M 301.5,53.5 C 302.451,54.9187 302.784,56.5853 302.5,58.5C 299.167,58.5 295.833,58.5 292.5,58.5C 295.287,57.5233 298.287,57.19 301.5,57.5C 301.5,56.1667 301.5,54.8333 301.5,53.5 Z"/></g>
<g><path style="opacity:1" fill="#a5a5a5" d="M 306.5,52.5 C 307.492,59.9818 307.825,67.6484 307.5,75.5C 302.305,75.8205 297.305,75.4872 292.5,74.5C 294.5,74.5 296.5,74.5 298.5,74.5C 299.964,73.5946 301.298,73.5946 302.5,74.5C 303.833,74.5 305.167,74.5 306.5,74.5C 306.5,67.1667 306.5,59.8333 306.5,52.5 Z"/></g>
<g><path style="opacity:1" fill="#949494" d="M 49.5,45.5 C 47.9349,51.3776 47.2683,57.3776 47.5,63.5C 45.8531,57.2717 46.5197,51.2717 49.5,45.5 Z"/></g>
<g><path style="opacity:1" fill="#a2a2a2" d="M 51.5,48.5 C 50.6932,54.4638 50.3599,60.4638 50.5,66.5C 49.8362,64.1903 49.5029,61.6903 49.5,59C 49.3037,55.1952 49.9704,51.6952 51.5,48.5 Z"/></g>
<g><path style="opacity:1" fill="#959595" d="M 146.5,55.5 C 149.284,59.4047 151.284,63.738 152.5,68.5C 149.171,64.8394 147.171,60.5061 146.5,55.5 Z"/></g>
<g><path style="opacity:1" fill="#7b7b7b" d="M 181.5,60.5 C 185.298,59.5166 189.298,59.1832 193.5,59.5C 193.5,61.1667 193.5,62.8333 193.5,64.5C 189.298,64.8168 185.298,64.4834 181.5,63.5C 185.167,63.5 188.833,63.5 192.5,63.5C 192.5,62.5 192.5,61.5 192.5,60.5C 188.833,60.5 185.167,60.5 181.5,60.5 Z"/></g>
<g><path style="opacity:1" fill="#5c5c5c" d="M 248.5,58.5 C 248.027,59.9063 247.027,60.573 245.5,60.5C 245.973,59.0937 246.973,58.427 248.5,58.5 Z"/></g>
<g><path style="opacity:1" fill="#626262" d="M 292.5,58.5 C 292.027,59.9063 291.027,60.573 289.5,60.5C 289.973,59.0937 290.973,58.427 292.5,58.5 Z"/></g>
<g><path style="opacity:1" fill="#777777" d="M 68.5,59.5 C 73.8746,59.1718 79.2079,59.5052 84.5,60.5C 81.8333,60.8333 79.1667,61.1667 76.5,61.5C 73.4098,61.4783 70.7432,60.8117 68.5,59.5 Z"/></g>
<g><path style="opacity:1" fill="#2a2a2a" d="M 115.5,43.5 C 115.796,45.403 116.463,47.0697 117.5,48.5C 118.307,54.4638 118.64,60.4638 118.5,66.5C 117.512,69.0761 116.512,71.7428 115.5,74.5C 114.637,75.463 113.97,75.463 113.5,74.5C 114.785,71.9795 115.452,69.3128 115.5,66.5C 116.651,61.3497 116.817,56.0164 116,50.5C 115.722,49.5842 115.222,48.9175 114.5,48.5C 114.5,48.1667 114.5,47.8333 114.5,47.5C 114.322,46.3052 113.989,45.1385 113.5,44C 113.683,42.3164 114.35,42.1498 115.5,43.5 Z"/></g>
<g><path style="opacity:1" fill="#0a0a0a" d="M 181.5,60.5 C 185.167,60.5 188.833,60.5 192.5,60.5C 192.5,61.5 192.5,62.5 192.5,63.5C 188.833,63.5 185.167,63.5 181.5,63.5C 181.5,62.5 181.5,61.5 181.5,60.5 Z"/></g>
<g><path style="opacity:1" fill="#8a8a8a" d="M 257.5,62.5 C 254.43,62.3677 251.43,62.701 248.5,63.5C 248.611,62.8826 248.944,62.3826 249.5,62C 252.367,61.1993 255.034,61.3659 257.5,62.5 Z"/></g>
<g><path style="opacity:1" fill="#848484" d="M 301.5,68.5 C 301.5,66.5 301.5,64.5 301.5,62.5C 298.43,62.3677 295.43,62.701 292.5,63.5C 292.611,62.8826 292.944,62.3826 293.5,62C 296.482,61.502 299.482,61.3354 302.5,61.5C 302.802,64.0593 302.468,66.3926 301.5,68.5 Z"/></g>
<g><path style="opacity:1" fill="#959595" d="M 158.5,57.5 C 157.434,59.8522 156.267,62.1856 155,64.5C 153.731,63.0953 153.231,61.4286 153.5,59.5C 154.222,59.9175 154.722,60.5842 155,61.5C 155.66,59.6763 156.827,58.343 158.5,57.5 Z"/></g>
<g><path style="opacity:1" fill="#ececec" d="M 257.5,62.5 C 258.793,64.3635 258.793,66.3635 257.5,68.5C 256.261,68.9424 255.261,69.6091 254.5,70.5C 249.677,70.6728 247.677,68.3394 248.5,63.5C 251.43,62.701 254.43,62.3677 257.5,62.5 Z"/></g>
<g><path style="opacity:1" fill="#f7f7f7" d="M 301.5,68.5 C 300.29,68.9321 299.29,69.5987 298.5,70.5C 293.677,70.6728 291.677,68.3394 292.5,63.5C 295.43,62.701 298.43,62.3677 301.5,62.5C 301.5,64.5 301.5,66.5 301.5,68.5 Z"/></g>
<g><path style="opacity:1" fill="#535353" d="M 95.5,49.5 C 94.596,50.209 94.2627,51.209 94.5,52.5C 92.5,52.5 90.5,52.5 88.5,52.5C 88.5,53.5 88.5,54.5 88.5,55.5C 87.1667,57.1667 87.1667,58.8333 88.5,60.5C 89.404,61.209 89.7373,62.209 89.5,63.5C 90.8333,63.5 92.1667,63.5 93.5,63.5C 93.6287,61.7839 93.962,60.1172 94.5,58.5C 95.2216,58.9175 95.7216,59.5842 96,60.5C 96.4983,57.1832 96.665,53.8499 96.5,50.5C 97.9942,54.6832 97.6609,58.8498 95.5,63C 97.2346,65.4019 97.5679,67.9019 96.5,70.5C 93.1667,69.1667 89.8333,69.1667 86.5,70.5C 85.8035,68.0081 86.1368,65.5081 87.5,63C 86.4285,58.8764 86.2618,54.7097 87,50.5C 89.6975,48.327 92.5308,47.9937 95.5,49.5 Z"/></g>
<g><path style="opacity:1" fill="#7e7e7e" d="M 94.5,58.5 C 93.962,60.1172 93.6287,61.7839 93.5,63.5C 92.1667,63.5 90.8333,63.5 89.5,63.5C 89.7373,62.209 89.404,61.209 88.5,60.5C 89.12,58.0233 90.12,58.0233 91.5,60.5C 92.2652,59.3881 93.2652,58.7214 94.5,58.5 Z"/></g>
<g><path style="opacity:1" fill="#ebebeb" d="M 95.5,53.5 C 95.5,54.1667 95.5,54.8333 95.5,55.5C 87.5,54.8333 87.5,54.1667 95.5,53.5 Z"/></g>
<g><path style="opacity:1" fill="#9d9d9d" d="M 94.5,52.5 C 95.1667,52.5 95.5,52.8333 95.5,53.5C 87.5,54.1667 87.5,54.8333 95.5,55.5C 93.1667,56.8333 90.8333,56.8333 88.5,55.5C 88.5,54.5 88.5,53.5 88.5,52.5C 90.5,52.5 92.5,52.5 94.5,52.5 Z"/></g>
<g><path style="opacity:1" fill="#777777" d="M 245.5,60.5 C 242.545,65.131 242.878,69.4643 246.5,73.5C 243.103,72.7415 241.77,70.5749 242.5,67C 242.041,64.0405 243.041,61.8738 245.5,60.5 Z"/></g>
<g><path style="opacity:1" fill="#999999" d="M 248.5,63.5 C 247.677,68.3394 249.677,70.6728 254.5,70.5C 248.325,71.9853 246.325,69.652 248.5,63.5 Z"/></g>
<g><path style="opacity:1" fill="#737373" d="M 289.5,60.5 C 287.877,63.2153 287.21,66.2153 287.5,69.5C 286.371,67.3718 286.204,65.0385 287,62.5C 287.708,61.6195 288.542,60.9528 289.5,60.5 Z"/></g>
<g><path style="opacity:1" fill="#b7b7b7" d="M 88.5,65.5 C 90.604,65.2011 92.604,65.5344 94.5,66.5C 93.5,66.8333 92.5,67.1667 91.5,67.5C 89.9704,67.3601 88.9704,66.6935 88.5,65.5 Z"/></g>
<g><path style="opacity:1" fill="#949494" d="M 292.5,63.5 C 291.677,68.3394 293.677,70.6728 298.5,70.5C 292.325,71.9853 290.325,69.652 292.5,63.5 Z"/></g>
<g><path style="opacity:1" fill="#989898" d="M 50.5,68.5 C 52.1042,69.287 52.7709,70.6203 52.5,72.5C 51.3263,71.4863 50.6596,70.153 50.5,68.5 Z"/></g>
<g><path style="opacity:1" fill="#626262" d="M 319.5,69.5 C 321.306,70.0241 322.972,70.6908 324.5,71.5C 322.219,71.9227 320.552,71.256 319.5,69.5 Z"/></g>
<g><path style="opacity:1" fill="#3c3c3c" d="M 347.5,69.5 C 348.968,70.7791 349.635,72.4458 349.5,74.5C 349.167,74.5 348.833,74.5 348.5,74.5C 348.5,73.1667 347.833,72.5 346.5,72.5C 344.5,71.8333 342.5,71.1667 340.5,70.5C 342.903,70.552 345.236,70.2186 347.5,69.5 Z"/></g>
<g><path style="opacity:1" fill="#c1c1c1" d="M 158.5,65.5 C 158.326,67.861 157.993,70.1944 157.5,72.5C 155.833,72.5 154.167,72.5 152.5,72.5C 152.5,71.1667 152.5,69.8333 152.5,68.5C 153.212,69.7387 154.212,70.2387 155.5,70C 156.399,68.3484 157.399,66.8484 158.5,65.5 Z"/></g>
<g><path style="opacity:1" fill="#a7a7a7" d="M 48.5,69.5 C 49.5375,70.9303 50.2041,72.597 50.5,74.5C 48.7868,73.3646 48.1201,71.698 48.5,69.5 Z"/></g>
<g><path style="opacity:1" fill="#8f8f8f" d="M 302.5,74.5 C 301.298,73.5946 299.964,73.5946 298.5,74.5C 300.002,71.9781 301.335,71.9781 302.5,74.5 Z"/></g>
<g><path style="opacity:1" fill="#8e8e8e" d="M 258.5,74.5 C 257.298,73.5946 255.964,73.5946 254.5,74.5C 256.002,71.9781 257.335,71.9781 258.5,74.5 Z"/></g>
<g><path style="opacity:1" fill="#494949" d="M 276.5,70.5 C 280.419,69.7464 281.753,71.0797 280.5,74.5C 277.127,76.2294 274.46,75.5627 272.5,72.5C 274.856,73.5751 277.189,73.5751 279.5,72.5C 278.398,71.8243 277.398,71.1577 276.5,70.5 Z"/></g>
<g><path style="opacity:1" fill="#bababa" d="M 258.5,74.5 C 259.833,74.5 261.167,74.5 262.5,74.5C 257.833,75.8333 253.167,75.8333 248.5,74.5C 250.5,74.5 252.5,74.5 254.5,74.5C 255.964,73.5946 257.298,73.5946 258.5,74.5 Z"/></g>
<g><path style="opacity:1" fill="#5e5e5e" d="M 115.5,66.5 C 115.452,69.3128 114.785,71.9795 113.5,74.5C 113.97,75.463 114.637,75.463 115.5,74.5C 115.443,75.609 115.11,76.609 114.5,77.5C 114.167,77.5 113.833,77.5 113.5,77.5C 113.158,76.6618 112.492,76.3284 111.5,76.5C 112.658,73.0111 113.991,69.6777 115.5,66.5 Z"/></g>
<g><path style="opacity:1" fill="#a5a5a5" d="M 50.5,75.5 C 51.9063,75.9731 52.573,76.9731 52.5,78.5C 51.0937,78.0269 50.427,77.0269 50.5,75.5 Z"/></g>
<g><path style="opacity:1" fill="#a4a4a4" d="M 113.5,77.5 C 113.833,77.5 114.167,77.5 114.5,77.5C 114.573,79.0269 113.906,80.0269 112.5,80.5C 112.557,79.391 112.89,78.391 113.5,77.5 Z"/></g>
<g><path style="opacity:1" fill="#373737" d="M 51.5,47.5 C 51.5,47.8333 51.5,48.1667 51.5,48.5C 49.9704,51.6952 49.3037,55.1952 49.5,59C 49.5029,61.6903 49.8362,64.1903 50.5,66.5C 50.5,67.1667 50.5,67.8333 50.5,68.5C 50.6596,70.153 51.3263,71.4863 52.5,72.5C 54.4251,76.7507 57.0918,80.4173 60.5,83.5C 61.5846,85.5869 63.2512,86.9202 65.5,87.5C 67.9647,89.8367 70.9647,91.3367 74.5,92C 80.0164,92.8174 85.3497,92.6507 90.5,91.5C 96.4529,90.0172 101.786,87.3505 106.5,83.5C 108.587,82.4154 109.92,80.7488 110.5,78.5C 110.328,77.5084 110.662,76.8417 111.5,76.5C 112.492,76.3284 113.158,76.6618 113.5,77.5C 112.89,78.391 112.557,79.391 112.5,80.5C 109.167,83.1667 106.167,86.1667 103.5,89.5C 83.2724,100.595 66.2724,96.9279 52.5,78.5C 52.573,76.9731 51.9063,75.9731 50.5,75.5C 50.5,75.1667 50.5,74.8333 50.5,74.5C 50.2041,72.597 49.5375,70.9303 48.5,69.5C 47.8505,67.5648 47.5172,65.5648 47.5,63.5C 47.2683,57.3776 47.9349,51.3776 49.5,45.5C 51.2027,44.3398 51.8693,45.0065 51.5,47.5 Z"/></g>
<g><path style="opacity:1" fill="#b1b1b1" d="M 60.5,83.5 C 62.7488,84.0798 64.4154,85.4131 65.5,87.5C 63.2512,86.9202 61.5846,85.5869 60.5,83.5 Z"/></g>
<g><path style="opacity:1" fill="#5f5f5f" d="M 110.5,78.5 C 109.92,80.7488 108.587,82.4154 106.5,83.5C 107.08,81.2512 108.413,79.5846 110.5,78.5 Z"/></g>
<g><path style="opacity:1" fill="#cacaca" d="M 112.5,80.5 C 110.5,84.5 107.5,87.5 103.5,89.5C 106.167,86.1667 109.167,83.1667 112.5,80.5 Z"/></g>
<g><path style="opacity:1" fill="#aeaeae" d="M 65.5,87.5 C 73.3965,91.0339 81.7298,92.3673 90.5,91.5C 85.3497,92.6507 80.0164,92.8174 74.5,92C 70.9647,91.3367 67.9647,89.8367 65.5,87.5 Z"/></g>
</svg>
